<svg xmlns="http://www.w3.org/2000/svg" viewBox="0 0 760 406" font-family="-apple-system, BlinkMacSystemFont, 'Segoe UI', Helvetica, Arial, sans-serif" role="img" aria-label="Animated map of 32 shared-memory banks, where bank = column mod 32, during one 16-byte read of row k of B's tile by the first 8 threads. Each row of cells is 32 columns, so columns 0, 32, 64 and 96 share bank 0. Before: each thread owns 8 contiguous columns, so thread starts are 8 columns apart (t0 at column 0, t1 at 8, up to t7 at 56). Thread 4 starts at column 32, which wraps onto thread 0's banks; every used bank serves 2 threads, half the banks sit idle, and the read takes 2 passes. After: each thread's 8 columns are split into two groups of 4, so thread starts are 4 columns apart (t0 at 0, t1 at 4, up to t7 at 28). 8 threads times 4 columns is 32 consecutive columns, so every bank serves exactly one thread: 1 pass. Threads 8 to 15 take columns 32 to 63 with their first groups, so the second groups start at column 64. That second read is a separate instruction with its own pass; since 64 mod 32 = 0 it reuses the same banks, one thread each, but at a different time.">
  <style>
    :root { --fg: #222; --muted: #777; --full: #cfcfcf; --empty: #ffffff; --edge: #999; --probe: #d9480f; --ok: #2b8a3e; --chip: #f4f4f4; --hotbg: #f2bfab; --newbg: #a0caa8; --newltbg: #d5e7d8; }
    @media (prefers-color-scheme: dark) {
      :root { --fg: #ddd; --muted: #999; --full: #555; --empty: #1e1e1e; --edge: #777; --probe: #ff8a4c; --ok: #69db7c; --chip: #2a2a2a; --hotbg: #6d442e; --newbg: #407348; --newltbg: #2d4431; }
    }
    text { fill: var(--fg); font-size: 14px; }
    .muted { fill: var(--muted); font-size: 12px; }
    .tiny { fill: var(--muted); font-size: 11px; }
    .title { font-weight: 600; font-size: 15px; }
    .b { font-weight: 600; }
    .sm { font-size: 12px; }
    .mvar { font-family: 'Times New Roman', Times, 'STIX Two Text', serif; font-style: italic; font-size: 1.1em; }
    .empty { fill: var(--empty); stroke: var(--edge); stroke-width: 0.8; }
    .hot { fill: var(--probe); fill-opacity: 0.35; stroke: var(--probe); stroke-width: 1.5; }
    .new { fill: var(--ok); fill-opacity: 0.45; stroke: var(--ok); stroke-width: 1.5; }
    .newlt { fill: var(--ok); fill-opacity: 0.2; stroke: var(--ok); stroke-width: 1.5; stroke-dasharray: 4 3; }
    .other { fill: var(--edge); fill-opacity: 0.12; stroke: var(--muted); stroke-width: 1.2; stroke-dasharray: 2 3; }
    .own { fill: none; stroke: var(--fg); stroke-width: 1.5; stroke-dasharray: 5 3; }
    .ring { fill: none; stroke: var(--probe); stroke-width: 3; }
    .wrap { fill: none; stroke: var(--muted); stroke-width: 1; }
    .num { fill: var(--probe); font-weight: 600; font-size: 13px; }
    .oktext { fill: var(--ok); font-weight: 600; }
    .lbl { font-size: 11px; font-weight: 600; paint-order: stroke; stroke-width: 4px; stroke-linejoin: round; }
    .note { fill: var(--probe); }
    .okl { fill: var(--ok); }
    .on-hot { stroke: var(--hotbg); }
    .on-new { stroke: var(--newbg); }
    .on-newlt { stroke: var(--newltbg); }
    .on-empty { stroke: var(--empty); }
    /* 73.3s loop, 11 steps starting at 0.5, 9.8, 15.6, 22.3, 30.1, 34.7, 39.7, 45.6, 53.3, 59.6, 68.5 s; final frame holds 4.3s, then fades. */
    .a { opacity: 0; animation: 73.3s linear infinite; }
    .st1-2 { animation-name: st1_2; }  /* 0.5s to 9.8s */
    @keyframes st1_2 { 0.00%, 0.68% { opacity: 0 } 0.89%, 13.37% { opacity: 1 } 13.57%, 100.00% { opacity: 0 } }
    .st2-3 { animation-name: st2_3; }  /* 9.8s to 15.6s */
    @keyframes st2_3 { 0.00%, 13.37% { opacity: 0 } 13.57%, 21.28% { opacity: 1 } 21.49%, 100.00% { opacity: 0 } }
    .st2 { animation-name: st2; }  /* 9.8s to end */
    @keyframes st2 { 0.00%, 13.37% { opacity: 0 } 13.57%, 99.32% { opacity: 1 } 99.52%, 100.00% { opacity: 0 } }
    .st3-4 { animation-name: st3_4; }  /* 15.6s to 22.3s */
    @keyframes st3_4 { 0.00%, 21.28% { opacity: 0 } 21.49%, 30.42% { opacity: 1 } 30.63%, 100.00% { opacity: 0 } }
    .st3 { animation-name: st3; }  /* 15.6s to end */
    @keyframes st3 { 0.00%, 21.28% { opacity: 0 } 21.49%, 99.32% { opacity: 1 } 99.52%, 100.00% { opacity: 0 } }
    .st4-5 { animation-name: st4_5; }  /* 22.3s to 30.1s */
    @keyframes st4_5 { 0.00%, 30.42% { opacity: 0 } 30.63%, 41.06% { opacity: 1 } 41.27%, 100.00% { opacity: 0 } }
    .st4 { animation-name: st4; }  /* 22.3s to end */
    @keyframes st4 { 0.00%, 30.42% { opacity: 0 } 30.63%, 99.32% { opacity: 1 } 99.52%, 100.00% { opacity: 0 } }
    .st5-6 { animation-name: st5_6; }  /* 30.1s to 34.7s */
    @keyframes st5_6 { 0.00%, 41.06% { opacity: 0 } 41.27%, 47.34% { opacity: 1 } 47.54%, 100.00% { opacity: 0 } }
    .st5 { animation-name: st5; }  /* 30.1s to end */
    @keyframes st5 { 0.00%, 41.06% { opacity: 0 } 41.27%, 99.32% { opacity: 1 } 99.52%, 100.00% { opacity: 0 } }
    .st6-7 { animation-name: st6_7; }  /* 34.7s to 39.7s */
    @keyframes st6_7 { 0.00%, 47.34% { opacity: 0 } 47.54%, 54.16% { opacity: 1 } 54.37%, 100.00% { opacity: 0 } }
    .st6 { animation-name: st6; }  /* 34.7s to end */
    @keyframes st6 { 0.00%, 47.34% { opacity: 0 } 47.54%, 99.32% { opacity: 1 } 99.52%, 100.00% { opacity: 0 } }
    .st7-8 { animation-name: st7_8; }  /* 39.7s to 45.6s */
    @keyframes st7_8 { 0.00%, 54.16% { opacity: 0 } 54.37%, 62.21% { opacity: 1 } 62.41%, 100.00% { opacity: 0 } }
    .st7 { animation-name: st7; }  /* 39.7s to end */
    @keyframes st7 { 0.00%, 54.16% { opacity: 0 } 54.37%, 99.32% { opacity: 1 } 99.52%, 100.00% { opacity: 0 } }
    .st8-9 { animation-name: st8_9; }  /* 45.6s to 53.3s */
    @keyframes st8_9 { 0.00%, 62.21% { opacity: 0 } 62.41%, 72.71% { opacity: 1 } 72.92%, 100.00% { opacity: 0 } }
    .st8 { animation-name: st8; }  /* 45.6s to end */
    @keyframes st8 { 0.00%, 62.21% { opacity: 0 } 62.41%, 99.32% { opacity: 1 } 99.52%, 100.00% { opacity: 0 } }
    .st9-10 { animation-name: st9_10; }  /* 53.3s to 59.6s */
    @keyframes st9_10 { 0.00%, 72.71% { opacity: 0 } 72.92%, 81.31% { opacity: 1 } 81.51%, 100.00% { opacity: 0 } }
    .st9 { animation-name: st9; }  /* 53.3s to end */
    @keyframes st9 { 0.00%, 72.71% { opacity: 0 } 72.92%, 99.32% { opacity: 1 } 99.52%, 100.00% { opacity: 0 } }
    .st10-11 { animation-name: st10_11; }  /* 59.6s to 68.5s */
    @keyframes st10_11 { 0.00%, 81.31% { opacity: 0 } 81.51%, 93.45% { opacity: 1 } 93.66%, 100.00% { opacity: 0 } }
    .st10 { animation-name: st10; }  /* 59.6s to end */
    @keyframes st10 { 0.00%, 81.31% { opacity: 0 } 81.51%, 99.32% { opacity: 1 } 99.52%, 100.00% { opacity: 0 } }
    .st11 { animation-name: st11; }  /* 68.5s to end */
    @keyframes st11 { 0.00%, 93.45% { opacity: 0 } 93.66%, 99.32% { opacity: 1 } 99.52%, 100.00% { opacity: 0 } }
    @media (prefers-reduced-motion: reduce) {
      .a { animation: none; opacity: 0; }
      .a.fin { opacity: 1; }
    }
  </style>
  <text x="20" y="26" class="title">A 16-byte read of row <tspan class="mvar">k</tspan> of <tspan class="mvar">B</tspan>’s tile: which banks do the first 8 threads hit?</text>
  <text x="110" y="62" class="tiny">bank = column mod 32</text>
  <text x="104" y="76" text-anchor="end" class="tiny">bank</text>
  <text x="119.5" y="76" text-anchor="middle" class="tiny">0</text>
  <text x="138.5" y="76" text-anchor="middle" class="tiny">1</text>
  <text x="157.5" y="76" text-anchor="middle" class="tiny">2</text>
  <text x="176.5" y="76" text-anchor="middle" class="tiny">3</text>
  <text x="195.5" y="76" text-anchor="middle" class="tiny">4</text>
  <text x="214.5" y="76" text-anchor="middle" class="tiny">5</text>
  <text x="233.5" y="76" text-anchor="middle" class="tiny">6</text>
  <text x="252.5" y="76" text-anchor="middle" class="tiny">7</text>
  <text x="271.5" y="76" text-anchor="middle" class="tiny">8</text>
  <text x="290.5" y="76" text-anchor="middle" class="tiny">9</text>
  <text x="309.5" y="76" text-anchor="middle" class="tiny">10</text>
  <text x="328.5" y="76" text-anchor="middle" class="tiny">11</text>
  <text x="347.5" y="76" text-anchor="middle" class="tiny">12</text>
  <text x="366.5" y="76" text-anchor="middle" class="tiny">13</text>
  <text x="385.5" y="76" text-anchor="middle" class="tiny">14</text>
  <text x="404.5" y="76" text-anchor="middle" class="tiny">15</text>
  <text x="423.5" y="76" text-anchor="middle" class="tiny">16</text>
  <text x="442.5" y="76" text-anchor="middle" class="tiny">17</text>
  <text x="461.5" y="76" text-anchor="middle" class="tiny">18</text>
  <text x="480.5" y="76" text-anchor="middle" class="tiny">19</text>
  <text x="499.5" y="76" text-anchor="middle" class="tiny">20</text>
  <text x="518.5" y="76" text-anchor="middle" class="tiny">21</text>
  <text x="537.5" y="76" text-anchor="middle" class="tiny">22</text>
  <text x="556.5" y="76" text-anchor="middle" class="tiny">23</text>
  <text x="575.5" y="76" text-anchor="middle" class="tiny">24</text>
  <text x="594.5" y="76" text-anchor="middle" class="tiny">25</text>
  <text x="613.5" y="76" text-anchor="middle" class="tiny">26</text>
  <text x="632.5" y="76" text-anchor="middle" class="tiny">27</text>
  <text x="651.5" y="76" text-anchor="middle" class="tiny">28</text>
  <text x="670.5" y="76" text-anchor="middle" class="tiny">29</text>
  <text x="689.5" y="76" text-anchor="middle" class="tiny">30</text>
  <text x="708.5" y="76" text-anchor="middle" class="tiny">31</text>
  <text x="20" y="96" class="b sm">before</text>
  <text x="110" y="96" class="muted a st2 fin">8 contiguous columns per thread</text>
  <text x="104" y="116" text-anchor="end" class="tiny">cols 0–31</text>
  <rect x="110" y="104" width="19" height="16" class="empty"/>
  <rect x="129" y="104" width="19" height="16" class="empty"/>
  <rect x="148" y="104" width="19" height="16" class="empty"/>
  <rect x="167" y="104" width="19" height="16" class="empty"/>
  <rect x="186" y="104" width="19" height="16" class="empty"/>
  <rect x="205" y="104" width="19" height="16" class="empty"/>
  <rect x="224" y="104" width="19" height="16" class="empty"/>
  <rect x="243" y="104" width="19" height="16" class="empty"/>
  <rect x="262" y="104" width="19" height="16" class="empty"/>
  <rect x="281" y="104" width="19" height="16" class="empty"/>
  <rect x="300" y="104" width="19" height="16" class="empty"/>
  <rect x="319" y="104" width="19" height="16" class="empty"/>
  <rect x="338" y="104" width="19" height="16" class="empty"/>
  <rect x="357" y="104" width="19" height="16" class="empty"/>
  <rect x="376" y="104" width="19" height="16" class="empty"/>
  <rect x="395" y="104" width="19" height="16" class="empty"/>
  <rect x="414" y="104" width="19" height="16" class="empty"/>
  <rect x="433" y="104" width="19" height="16" class="empty"/>
  <rect x="452" y="104" width="19" height="16" class="empty"/>
  <rect x="471" y="104" width="19" height="16" class="empty"/>
  <rect x="490" y="104" width="19" height="16" class="empty"/>
  <rect x="509" y="104" width="19" height="16" class="empty"/>
  <rect x="528" y="104" width="19" height="16" class="empty"/>
  <rect x="547" y="104" width="19" height="16" class="empty"/>
  <rect x="566" y="104" width="19" height="16" class="empty"/>
  <rect x="585" y="104" width="19" height="16" class="empty"/>
  <rect x="604" y="104" width="19" height="16" class="empty"/>
  <rect x="623" y="104" width="19" height="16" class="empty"/>
  <rect x="642" y="104" width="19" height="16" class="empty"/>
  <rect x="661" y="104" width="19" height="16" class="empty"/>
  <rect x="680" y="104" width="19" height="16" class="empty"/>
  <rect x="699" y="104" width="19" height="16" class="empty"/>
  <text x="104" y="132" text-anchor="end" class="tiny">cols 32–63</text>
  <rect x="110" y="120" width="19" height="16" class="empty"/>
  <rect x="129" y="120" width="19" height="16" class="empty"/>
  <rect x="148" y="120" width="19" height="16" class="empty"/>
  <rect x="167" y="120" width="19" height="16" class="empty"/>
  <rect x="186" y="120" width="19" height="16" class="empty"/>
  <rect x="205" y="120" width="19" height="16" class="empty"/>
  <rect x="224" y="120" width="19" height="16" class="empty"/>
  <rect x="243" y="120" width="19" height="16" class="empty"/>
  <rect x="262" y="120" width="19" height="16" class="empty"/>
  <rect x="281" y="120" width="19" height="16" class="empty"/>
  <rect x="300" y="120" width="19" height="16" class="empty"/>
  <rect x="319" y="120" width="19" height="16" class="empty"/>
  <rect x="338" y="120" width="19" height="16" class="empty"/>
  <rect x="357" y="120" width="19" height="16" class="empty"/>
  <rect x="376" y="120" width="19" height="16" class="empty"/>
  <rect x="395" y="120" width="19" height="16" class="empty"/>
  <rect x="414" y="120" width="19" height="16" class="empty"/>
  <rect x="433" y="120" width="19" height="16" class="empty"/>
  <rect x="452" y="120" width="19" height="16" class="empty"/>
  <rect x="471" y="120" width="19" height="16" class="empty"/>
  <rect x="490" y="120" width="19" height="16" class="empty"/>
  <rect x="509" y="120" width="19" height="16" class="empty"/>
  <rect x="528" y="120" width="19" height="16" class="empty"/>
  <rect x="547" y="120" width="19" height="16" class="empty"/>
  <rect x="566" y="120" width="19" height="16" class="empty"/>
  <rect x="585" y="120" width="19" height="16" class="empty"/>
  <rect x="604" y="120" width="19" height="16" class="empty"/>
  <rect x="623" y="120" width="19" height="16" class="empty"/>
  <rect x="642" y="120" width="19" height="16" class="empty"/>
  <rect x="661" y="120" width="19" height="16" class="empty"/>
  <rect x="680" y="120" width="19" height="16" class="empty"/>
  <rect x="699" y="120" width="19" height="16" class="empty"/>
  <text x="104" y="148" text-anchor="end" class="tiny">cols 64–95</text>
  <rect x="110" y="136" width="19" height="16" class="empty"/>
  <rect x="129" y="136" width="19" height="16" class="empty"/>
  <rect x="148" y="136" width="19" height="16" class="empty"/>
  <rect x="167" y="136" width="19" height="16" class="empty"/>
  <rect x="186" y="136" width="19" height="16" class="empty"/>
  <rect x="205" y="136" width="19" height="16" class="empty"/>
  <rect x="224" y="136" width="19" height="16" class="empty"/>
  <rect x="243" y="136" width="19" height="16" class="empty"/>
  <rect x="262" y="136" width="19" height="16" class="empty"/>
  <rect x="281" y="136" width="19" height="16" class="empty"/>
  <rect x="300" y="136" width="19" height="16" class="empty"/>
  <rect x="319" y="136" width="19" height="16" class="empty"/>
  <rect x="338" y="136" width="19" height="16" class="empty"/>
  <rect x="357" y="136" width="19" height="16" class="empty"/>
  <rect x="376" y="136" width="19" height="16" class="empty"/>
  <rect x="395" y="136" width="19" height="16" class="empty"/>
  <rect x="414" y="136" width="19" height="16" class="empty"/>
  <rect x="433" y="136" width="19" height="16" class="empty"/>
  <rect x="452" y="136" width="19" height="16" class="empty"/>
  <rect x="471" y="136" width="19" height="16" class="empty"/>
  <rect x="490" y="136" width="19" height="16" class="empty"/>
  <rect x="509" y="136" width="19" height="16" class="empty"/>
  <rect x="528" y="136" width="19" height="16" class="empty"/>
  <rect x="547" y="136" width="19" height="16" class="empty"/>
  <rect x="566" y="136" width="19" height="16" class="empty"/>
  <rect x="585" y="136" width="19" height="16" class="empty"/>
  <rect x="604" y="136" width="19" height="16" class="empty"/>
  <rect x="623" y="136" width="19" height="16" class="empty"/>
  <rect x="642" y="136" width="19" height="16" class="empty"/>
  <rect x="661" y="136" width="19" height="16" class="empty"/>
  <rect x="680" y="136" width="19" height="16" class="empty"/>
  <rect x="699" y="136" width="19" height="16" class="empty"/>
  <text x="104" y="164" text-anchor="end" class="tiny">cols 96–127</text>
  <rect x="110" y="152" width="19" height="16" class="empty"/>
  <rect x="129" y="152" width="19" height="16" class="empty"/>
  <rect x="148" y="152" width="19" height="16" class="empty"/>
  <rect x="167" y="152" width="19" height="16" class="empty"/>
  <rect x="186" y="152" width="19" height="16" class="empty"/>
  <rect x="205" y="152" width="19" height="16" class="empty"/>
  <rect x="224" y="152" width="19" height="16" class="empty"/>
  <rect x="243" y="152" width="19" height="16" class="empty"/>
  <rect x="262" y="152" width="19" height="16" class="empty"/>
  <rect x="281" y="152" width="19" height="16" class="empty"/>
  <rect x="300" y="152" width="19" height="16" class="empty"/>
  <rect x="319" y="152" width="19" height="16" class="empty"/>
  <rect x="338" y="152" width="19" height="16" class="empty"/>
  <rect x="357" y="152" width="19" height="16" class="empty"/>
  <rect x="376" y="152" width="19" height="16" class="empty"/>
  <rect x="395" y="152" width="19" height="16" class="empty"/>
  <rect x="414" y="152" width="19" height="16" class="empty"/>
  <rect x="433" y="152" width="19" height="16" class="empty"/>
  <rect x="452" y="152" width="19" height="16" class="empty"/>
  <rect x="471" y="152" width="19" height="16" class="empty"/>
  <rect x="490" y="152" width="19" height="16" class="empty"/>
  <rect x="509" y="152" width="19" height="16" class="empty"/>
  <rect x="528" y="152" width="19" height="16" class="empty"/>
  <rect x="547" y="152" width="19" height="16" class="empty"/>
  <rect x="566" y="152" width="19" height="16" class="empty"/>
  <rect x="585" y="152" width="19" height="16" class="empty"/>
  <rect x="604" y="152" width="19" height="16" class="empty"/>
  <rect x="623" y="152" width="19" height="16" class="empty"/>
  <rect x="642" y="152" width="19" height="16" class="empty"/>
  <rect x="661" y="152" width="19" height="16" class="empty"/>
  <rect x="680" y="152" width="19" height="16" class="empty"/>
  <rect x="699" y="152" width="19" height="16" class="empty"/>
  <rect x="110" y="104" width="152" height="16" class="own a st2-3"/>
  <text x="186" y="116" text-anchor="middle" class="lbl on-empty a st2-3">t0’s 8 columns</text>
  <rect x="110" y="104" width="76" height="16" class="hot a st3 fin"/>
  <text x="148" y="116" text-anchor="middle" class="lbl on-hot a st3 fin">t0</text>
  <rect x="262" y="104" width="76" height="16" class="hot a st3 fin"/>
  <text x="300" y="116" text-anchor="middle" class="lbl on-hot a st3 fin">t1</text>
  <rect x="414" y="104" width="76" height="16" class="hot a st3 fin"/>
  <text x="452" y="116" text-anchor="middle" class="lbl on-hot a st3 fin">t2</text>
  <rect x="566" y="104" width="76" height="16" class="hot a st3 fin"/>
  <text x="604" y="116" text-anchor="middle" class="lbl on-hot a st3 fin">t3</text>
  <rect x="110" y="120" width="76" height="16" class="hot a st3 fin"/>
  <text x="148" y="132" text-anchor="middle" class="lbl on-hot a st3 fin">t4</text>
  <rect x="262" y="120" width="76" height="16" class="hot a st3 fin"/>
  <text x="300" y="132" text-anchor="middle" class="lbl on-hot a st3 fin">t5</text>
  <rect x="414" y="120" width="76" height="16" class="hot a st3 fin"/>
  <text x="452" y="132" text-anchor="middle" class="lbl on-hot a st3 fin">t6</text>
  <rect x="566" y="120" width="76" height="16" class="hot a st3 fin"/>
  <text x="604" y="132" text-anchor="middle" class="lbl on-hot a st3 fin">t7</text>
  <rect x="108" y="102" width="80" height="36" rx="3" class="ring a st4 fin"/>
  <text x="104" y="186" text-anchor="end" class="tiny a st5 fin">threads/bank</text>
  <text x="119.5" y="186" text-anchor="middle" class="num sm a st5 fin">2</text>
  <text x="138.5" y="186" text-anchor="middle" class="num sm a st5 fin">2</text>
  <text x="157.5" y="186" text-anchor="middle" class="num sm a st5 fin">2</text>
  <text x="176.5" y="186" text-anchor="middle" class="num sm a st5 fin">2</text>
  <text x="224" y="186" text-anchor="middle" class="muted sm a st5 fin">idle</text>
  <text x="271.5" y="186" text-anchor="middle" class="num sm a st5 fin">2</text>
  <text x="290.5" y="186" text-anchor="middle" class="num sm a st5 fin">2</text>
  <text x="309.5" y="186" text-anchor="middle" class="num sm a st5 fin">2</text>
  <text x="328.5" y="186" text-anchor="middle" class="num sm a st5 fin">2</text>
  <text x="376" y="186" text-anchor="middle" class="muted sm a st5 fin">idle</text>
  <text x="423.5" y="186" text-anchor="middle" class="num sm a st5 fin">2</text>
  <text x="442.5" y="186" text-anchor="middle" class="num sm a st5 fin">2</text>
  <text x="461.5" y="186" text-anchor="middle" class="num sm a st5 fin">2</text>
  <text x="480.5" y="186" text-anchor="middle" class="num sm a st5 fin">2</text>
  <text x="528" y="186" text-anchor="middle" class="muted sm a st5 fin">idle</text>
  <text x="575.5" y="186" text-anchor="middle" class="num sm a st5 fin">2</text>
  <text x="594.5" y="186" text-anchor="middle" class="num sm a st5 fin">2</text>
  <text x="613.5" y="186" text-anchor="middle" class="num sm a st5 fin">2</text>
  <text x="632.5" y="186" text-anchor="middle" class="num sm a st5 fin">2</text>
  <text x="680" y="186" text-anchor="middle" class="muted sm a st5 fin">idle</text>
  <text x="20" y="236" class="b sm">after</text>
  <text x="110" y="236" class="muted a st6 fin">two groups of 4 columns per thread</text>
  <text x="104" y="256" text-anchor="end" class="tiny">cols 0–31</text>
  <rect x="110" y="244" width="19" height="16" class="empty"/>
  <rect x="129" y="244" width="19" height="16" class="empty"/>
  <rect x="148" y="244" width="19" height="16" class="empty"/>
  <rect x="167" y="244" width="19" height="16" class="empty"/>
  <rect x="186" y="244" width="19" height="16" class="empty"/>
  <rect x="205" y="244" width="19" height="16" class="empty"/>
  <rect x="224" y="244" width="19" height="16" class="empty"/>
  <rect x="243" y="244" width="19" height="16" class="empty"/>
  <rect x="262" y="244" width="19" height="16" class="empty"/>
  <rect x="281" y="244" width="19" height="16" class="empty"/>
  <rect x="300" y="244" width="19" height="16" class="empty"/>
  <rect x="319" y="244" width="19" height="16" class="empty"/>
  <rect x="338" y="244" width="19" height="16" class="empty"/>
  <rect x="357" y="244" width="19" height="16" class="empty"/>
  <rect x="376" y="244" width="19" height="16" class="empty"/>
  <rect x="395" y="244" width="19" height="16" class="empty"/>
  <rect x="414" y="244" width="19" height="16" class="empty"/>
  <rect x="433" y="244" width="19" height="16" class="empty"/>
  <rect x="452" y="244" width="19" height="16" class="empty"/>
  <rect x="471" y="244" width="19" height="16" class="empty"/>
  <rect x="490" y="244" width="19" height="16" class="empty"/>
  <rect x="509" y="244" width="19" height="16" class="empty"/>
  <rect x="528" y="244" width="19" height="16" class="empty"/>
  <rect x="547" y="244" width="19" height="16" class="empty"/>
  <rect x="566" y="244" width="19" height="16" class="empty"/>
  <rect x="585" y="244" width="19" height="16" class="empty"/>
  <rect x="604" y="244" width="19" height="16" class="empty"/>
  <rect x="623" y="244" width="19" height="16" class="empty"/>
  <rect x="642" y="244" width="19" height="16" class="empty"/>
  <rect x="661" y="244" width="19" height="16" class="empty"/>
  <rect x="680" y="244" width="19" height="16" class="empty"/>
  <rect x="699" y="244" width="19" height="16" class="empty"/>
  <text x="104" y="272" text-anchor="end" class="tiny">cols 32–63</text>
  <rect x="110" y="260" width="19" height="16" class="empty"/>
  <rect x="129" y="260" width="19" height="16" class="empty"/>
  <rect x="148" y="260" width="19" height="16" class="empty"/>
  <rect x="167" y="260" width="19" height="16" class="empty"/>
  <rect x="186" y="260" width="19" height="16" class="empty"/>
  <rect x="205" y="260" width="19" height="16" class="empty"/>
  <rect x="224" y="260" width="19" height="16" class="empty"/>
  <rect x="243" y="260" width="19" height="16" class="empty"/>
  <rect x="262" y="260" width="19" height="16" class="empty"/>
  <rect x="281" y="260" width="19" height="16" class="empty"/>
  <rect x="300" y="260" width="19" height="16" class="empty"/>
  <rect x="319" y="260" width="19" height="16" class="empty"/>
  <rect x="338" y="260" width="19" height="16" class="empty"/>
  <rect x="357" y="260" width="19" height="16" class="empty"/>
  <rect x="376" y="260" width="19" height="16" class="empty"/>
  <rect x="395" y="260" width="19" height="16" class="empty"/>
  <rect x="414" y="260" width="19" height="16" class="empty"/>
  <rect x="433" y="260" width="19" height="16" class="empty"/>
  <rect x="452" y="260" width="19" height="16" class="empty"/>
  <rect x="471" y="260" width="19" height="16" class="empty"/>
  <rect x="490" y="260" width="19" height="16" class="empty"/>
  <rect x="509" y="260" width="19" height="16" class="empty"/>
  <rect x="528" y="260" width="19" height="16" class="empty"/>
  <rect x="547" y="260" width="19" height="16" class="empty"/>
  <rect x="566" y="260" width="19" height="16" class="empty"/>
  <rect x="585" y="260" width="19" height="16" class="empty"/>
  <rect x="604" y="260" width="19" height="16" class="empty"/>
  <rect x="623" y="260" width="19" height="16" class="empty"/>
  <rect x="642" y="260" width="19" height="16" class="empty"/>
  <rect x="661" y="260" width="19" height="16" class="empty"/>
  <rect x="680" y="260" width="19" height="16" class="empty"/>
  <rect x="699" y="260" width="19" height="16" class="empty"/>
  <text x="104" y="288" text-anchor="end" class="tiny">cols 64–95</text>
  <rect x="110" y="276" width="19" height="16" class="empty"/>
  <rect x="129" y="276" width="19" height="16" class="empty"/>
  <rect x="148" y="276" width="19" height="16" class="empty"/>
  <rect x="167" y="276" width="19" height="16" class="empty"/>
  <rect x="186" y="276" width="19" height="16" class="empty"/>
  <rect x="205" y="276" width="19" height="16" class="empty"/>
  <rect x="224" y="276" width="19" height="16" class="empty"/>
  <rect x="243" y="276" width="19" height="16" class="empty"/>
  <rect x="262" y="276" width="19" height="16" class="empty"/>
  <rect x="281" y="276" width="19" height="16" class="empty"/>
  <rect x="300" y="276" width="19" height="16" class="empty"/>
  <rect x="319" y="276" width="19" height="16" class="empty"/>
  <rect x="338" y="276" width="19" height="16" class="empty"/>
  <rect x="357" y="276" width="19" height="16" class="empty"/>
  <rect x="376" y="276" width="19" height="16" class="empty"/>
  <rect x="395" y="276" width="19" height="16" class="empty"/>
  <rect x="414" y="276" width="19" height="16" class="empty"/>
  <rect x="433" y="276" width="19" height="16" class="empty"/>
  <rect x="452" y="276" width="19" height="16" class="empty"/>
  <rect x="471" y="276" width="19" height="16" class="empty"/>
  <rect x="490" y="276" width="19" height="16" class="empty"/>
  <rect x="509" y="276" width="19" height="16" class="empty"/>
  <rect x="528" y="276" width="19" height="16" class="empty"/>
  <rect x="547" y="276" width="19" height="16" class="empty"/>
  <rect x="566" y="276" width="19" height="16" class="empty"/>
  <rect x="585" y="276" width="19" height="16" class="empty"/>
  <rect x="604" y="276" width="19" height="16" class="empty"/>
  <rect x="623" y="276" width="19" height="16" class="empty"/>
  <rect x="642" y="276" width="19" height="16" class="empty"/>
  <rect x="661" y="276" width="19" height="16" class="empty"/>
  <rect x="680" y="276" width="19" height="16" class="empty"/>
  <rect x="699" y="276" width="19" height="16" class="empty"/>
  <text x="104" y="304" text-anchor="end" class="tiny">cols 96–127</text>
  <rect x="110" y="292" width="19" height="16" class="empty"/>
  <rect x="129" y="292" width="19" height="16" class="empty"/>
  <rect x="148" y="292" width="19" height="16" class="empty"/>
  <rect x="167" y="292" width="19" height="16" class="empty"/>
  <rect x="186" y="292" width="19" height="16" class="empty"/>
  <rect x="205" y="292" width="19" height="16" class="empty"/>
  <rect x="224" y="292" width="19" height="16" class="empty"/>
  <rect x="243" y="292" width="19" height="16" class="empty"/>
  <rect x="262" y="292" width="19" height="16" class="empty"/>
  <rect x="281" y="292" width="19" height="16" class="empty"/>
  <rect x="300" y="292" width="19" height="16" class="empty"/>
  <rect x="319" y="292" width="19" height="16" class="empty"/>
  <rect x="338" y="292" width="19" height="16" class="empty"/>
  <rect x="357" y="292" width="19" height="16" class="empty"/>
  <rect x="376" y="292" width="19" height="16" class="empty"/>
  <rect x="395" y="292" width="19" height="16" class="empty"/>
  <rect x="414" y="292" width="19" height="16" class="empty"/>
  <rect x="433" y="292" width="19" height="16" class="empty"/>
  <rect x="452" y="292" width="19" height="16" class="empty"/>
  <rect x="471" y="292" width="19" height="16" class="empty"/>
  <rect x="490" y="292" width="19" height="16" class="empty"/>
  <rect x="509" y="292" width="19" height="16" class="empty"/>
  <rect x="528" y="292" width="19" height="16" class="empty"/>
  <rect x="547" y="292" width="19" height="16" class="empty"/>
  <rect x="566" y="292" width="19" height="16" class="empty"/>
  <rect x="585" y="292" width="19" height="16" class="empty"/>
  <rect x="604" y="292" width="19" height="16" class="empty"/>
  <rect x="623" y="292" width="19" height="16" class="empty"/>
  <rect x="642" y="292" width="19" height="16" class="empty"/>
  <rect x="661" y="292" width="19" height="16" class="empty"/>
  <rect x="680" y="292" width="19" height="16" class="empty"/>
  <rect x="699" y="292" width="19" height="16" class="empty"/>
  <rect x="110" y="244" width="76" height="16" class="own a st6 fin"/>
  <rect x="110" y="276" width="76" height="16" class="own a st6 fin"/>
  <rect x="110" y="244" width="76" height="16" class="new a st7 fin"/>
  <text x="148" y="256" text-anchor="middle" class="lbl on-new a st7 fin">t0</text>
  <rect x="186" y="244" width="76" height="16" class="new a st7 fin"/>
  <text x="224" y="256" text-anchor="middle" class="lbl on-new a st7 fin">t1</text>
  <rect x="262" y="244" width="76" height="16" class="new a st7 fin"/>
  <text x="300" y="256" text-anchor="middle" class="lbl on-new a st7 fin">t2</text>
  <rect x="338" y="244" width="76" height="16" class="new a st7 fin"/>
  <text x="376" y="256" text-anchor="middle" class="lbl on-new a st7 fin">t3</text>
  <rect x="414" y="244" width="76" height="16" class="new a st7 fin"/>
  <text x="452" y="256" text-anchor="middle" class="lbl on-new a st7 fin">t4</text>
  <rect x="490" y="244" width="76" height="16" class="new a st7 fin"/>
  <text x="528" y="256" text-anchor="middle" class="lbl on-new a st7 fin">t5</text>
  <rect x="566" y="244" width="76" height="16" class="new a st7 fin"/>
  <text x="604" y="256" text-anchor="middle" class="lbl on-new a st7 fin">t6</text>
  <rect x="642" y="244" width="76" height="16" class="new a st7 fin"/>
  <text x="680" y="256" text-anchor="middle" class="lbl on-new a st7 fin">t7</text>
  <text x="104" y="326" text-anchor="end" class="tiny a st8 fin">threads/bank</text>
  <text x="119.5" y="326" text-anchor="middle" class="oktext sm a st8 fin">1</text>
  <text x="138.5" y="326" text-anchor="middle" class="oktext sm a st8 fin">1</text>
  <text x="157.5" y="326" text-anchor="middle" class="oktext sm a st8 fin">1</text>
  <text x="176.5" y="326" text-anchor="middle" class="oktext sm a st8 fin">1</text>
  <text x="195.5" y="326" text-anchor="middle" class="oktext sm a st8 fin">1</text>
  <text x="214.5" y="326" text-anchor="middle" class="oktext sm a st8 fin">1</text>
  <text x="233.5" y="326" text-anchor="middle" class="oktext sm a st8 fin">1</text>
  <text x="252.5" y="326" text-anchor="middle" class="oktext sm a st8 fin">1</text>
  <text x="271.5" y="326" text-anchor="middle" class="oktext sm a st8 fin">1</text>
  <text x="290.5" y="326" text-anchor="middle" class="oktext sm a st8 fin">1</text>
  <text x="309.5" y="326" text-anchor="middle" class="oktext sm a st8 fin">1</text>
  <text x="328.5" y="326" text-anchor="middle" class="oktext sm a st8 fin">1</text>
  <text x="347.5" y="326" text-anchor="middle" class="oktext sm a st8 fin">1</text>
  <text x="366.5" y="326" text-anchor="middle" class="oktext sm a st8 fin">1</text>
  <text x="385.5" y="326" text-anchor="middle" class="oktext sm a st8 fin">1</text>
  <text x="404.5" y="326" text-anchor="middle" class="oktext sm a st8 fin">1</text>
  <text x="423.5" y="326" text-anchor="middle" class="oktext sm a st8 fin">1</text>
  <text x="442.5" y="326" text-anchor="middle" class="oktext sm a st8 fin">1</text>
  <text x="461.5" y="326" text-anchor="middle" class="oktext sm a st8 fin">1</text>
  <text x="480.5" y="326" text-anchor="middle" class="oktext sm a st8 fin">1</text>
  <text x="499.5" y="326" text-anchor="middle" class="oktext sm a st8 fin">1</text>
  <text x="518.5" y="326" text-anchor="middle" class="oktext sm a st8 fin">1</text>
  <text x="537.5" y="326" text-anchor="middle" class="oktext sm a st8 fin">1</text>
  <text x="556.5" y="326" text-anchor="middle" class="oktext sm a st8 fin">1</text>
  <text x="575.5" y="326" text-anchor="middle" class="oktext sm a st8 fin">1</text>
  <text x="594.5" y="326" text-anchor="middle" class="oktext sm a st8 fin">1</text>
  <text x="613.5" y="326" text-anchor="middle" class="oktext sm a st8 fin">1</text>
  <text x="632.5" y="326" text-anchor="middle" class="oktext sm a st8 fin">1</text>
  <text x="651.5" y="326" text-anchor="middle" class="oktext sm a st8 fin">1</text>
  <text x="670.5" y="326" text-anchor="middle" class="oktext sm a st8 fin">1</text>
  <text x="689.5" y="326" text-anchor="middle" class="oktext sm a st8 fin">1</text>
  <text x="708.5" y="326" text-anchor="middle" class="oktext sm a st8 fin">1</text>
  <rect x="110" y="260" width="608" height="16" class="other a st9 fin"/>
  <text x="414" y="272" text-anchor="middle" class="lbl on-empty a st9 fin">t8–t15, first groups</text>
  <rect x="110" y="276" width="76" height="16" class="newlt a st10 fin"/>
  <text x="148" y="288" text-anchor="middle" class="lbl on-newlt a st10 fin">t0</text>
  <rect x="186" y="276" width="76" height="16" class="newlt a st10 fin"/>
  <text x="224" y="288" text-anchor="middle" class="lbl on-newlt a st10 fin">t1</text>
  <rect x="262" y="276" width="76" height="16" class="newlt a st10 fin"/>
  <text x="300" y="288" text-anchor="middle" class="lbl on-newlt a st10 fin">t2</text>
  <rect x="338" y="276" width="76" height="16" class="newlt a st10 fin"/>
  <text x="376" y="288" text-anchor="middle" class="lbl on-newlt a st10 fin">t3</text>
  <rect x="414" y="276" width="76" height="16" class="newlt a st10 fin"/>
  <text x="452" y="288" text-anchor="middle" class="lbl on-newlt a st10 fin">t4</text>
  <rect x="490" y="276" width="76" height="16" class="newlt a st10 fin"/>
  <text x="528" y="288" text-anchor="middle" class="lbl on-newlt a st10 fin">t5</text>
  <rect x="566" y="276" width="76" height="16" class="newlt a st10 fin"/>
  <text x="604" y="288" text-anchor="middle" class="lbl on-newlt a st10 fin">t6</text>
  <rect x="642" y="276" width="76" height="16" class="newlt a st10 fin"/>
  <text x="680" y="288" text-anchor="middle" class="lbl on-newlt a st10 fin">t7</text>
  <text x="110" y="346" class="sm okl a st10 fin">second groups: a separate read</text>
  <text x="20" y="392" class="a st1-2">Row <tspan class="mvar">k</tspan> of <tspan class="mvar">B</tspan>’s tile is 128 floats and wraps around the 32 banks 4 times.</text>
  <text x="20" y="392" class="a st2-3">Each thread reads its 8 columns as two 16-byte reads, 4 columns each.</text>
  <text x="20" y="392" class="a st3-4">First read: with neighbors 8 columns apart, 8 threads span 64 columns.</text>
  <text x="20" y="392" class="a st4-5">Columns 32–63 reuse banks 0–31: t4 collides with t0, t5 with t1, and so on.</text>
  <text x="20" y="392" class="a st5-6">With 2 threads on each used bank, the read takes 2 passes.</text>
  <text x="20" y="392" class="a st6-7">Same 8 columns per thread, regrouped.</text>
  <text x="20" y="392" class="a st7-8">First read: neighbors now start 4 columns apart, not 8.</text>
  <text x="20" y="392" class="a st8-9">One thread per bank: the read takes 1 pass.</text>
  <text x="20" y="392" class="a st9-10">Threads 8–15 take columns 32–63, in their own pass.</text>
  <text x="20" y="392" class="a st10-11">So second groups start at column 64.</text>
  <text x="20" y="392" class="b a st11 fin">Spacing neighbors 4 columns apart instead of 8 is what removes the conflict.</text>
</svg>
